<mxfile host="app.diagrams.net" agent="Mozilla/5.0 (Windows NT 10.0; Win64; x64) AppleWebKit/537.36 (KHTML, like Gecko) Chrome/134.0.0.0 Safari/537.36 Edg/134.0.0.0" version="26.2.5">
  <diagram name="Page-1" id="HTyh9wsHSGum16m2Dbgr">
    <mxGraphModel dx="1333" dy="786" grid="1" gridSize="10" guides="1" tooltips="1" connect="1" arrows="1" fold="1" page="0" pageScale="1" pageWidth="850" pageHeight="1100" math="0" shadow="0">
      <root>
        <mxCell id="0" />
        <mxCell id="1" parent="0" />
        <mxCell id="uFPeOcH_L2GbYrD58vzL-88" value="" style="rounded=0;whiteSpace=wrap;html=1;fillColor=none;" parent="1" vertex="1">
          <mxGeometry x="419" y="1132" width="165" height="80" as="geometry" />
        </mxCell>
        <mxCell id="uFPeOcH_L2GbYrD58vzL-117" value="" style="rounded=0;whiteSpace=wrap;html=1;" parent="1" vertex="1">
          <mxGeometry x="68" y="466" width="157" height="252" as="geometry" />
        </mxCell>
        <mxCell id="uFPeOcH_L2GbYrD58vzL-87" value="" style="rounded=0;whiteSpace=wrap;html=1;fillColor=none;" parent="1" vertex="1">
          <mxGeometry x="404" y="684" width="166" height="280" as="geometry" />
        </mxCell>
        <mxCell id="uFPeOcH_L2GbYrD58vzL-2" value="Social" style="shape=table;startSize=30;container=1;collapsible=1;childLayout=tableLayout;fixedRows=1;rowLines=0;fontStyle=1;align=center;resizeLast=1;html=1;" parent="1" vertex="1">
          <mxGeometry x="70" y="233" width="150" height="60" as="geometry" />
        </mxCell>
        <mxCell id="uFPeOcH_L2GbYrD58vzL-3" value="" style="shape=tableRow;horizontal=0;startSize=0;swimlaneHead=0;swimlaneBody=0;fillColor=none;collapsible=0;dropTarget=0;points=[[0,0.5],[1,0.5]];portConstraint=eastwest;top=0;left=0;right=0;bottom=1;" parent="uFPeOcH_L2GbYrD58vzL-2" vertex="1">
          <mxGeometry y="30" width="150" height="30" as="geometry" />
        </mxCell>
        <mxCell id="uFPeOcH_L2GbYrD58vzL-5" value="Name" style="shape=partialRectangle;connectable=0;fillColor=none;top=0;left=0;bottom=0;right=0;align=left;spacingLeft=6;fontStyle=5;overflow=hidden;whiteSpace=wrap;html=1;" parent="uFPeOcH_L2GbYrD58vzL-3" vertex="1">
          <mxGeometry width="150" height="30" as="geometry">
            <mxRectangle width="150" height="30" as="alternateBounds" />
          </mxGeometry>
        </mxCell>
        <mxCell id="uFPeOcH_L2GbYrD58vzL-15" value="User" style="shape=table;startSize=30;container=1;collapsible=1;childLayout=tableLayout;fixedRows=1;rowLines=0;fontStyle=1;align=center;resizeLast=1;html=1;strokeColor=default;fillColor=none;strokeWidth=1;" parent="1" vertex="1">
          <mxGeometry x="73" y="473" width="147" height="238" as="geometry" />
        </mxCell>
        <mxCell id="uFPeOcH_L2GbYrD58vzL-16" value="" style="shape=tableRow;horizontal=0;startSize=0;swimlaneHead=0;swimlaneBody=0;fillColor=none;collapsible=0;dropTarget=0;points=[[0,0.5],[1,0.5]];portConstraint=eastwest;top=0;left=0;right=0;bottom=1;" parent="uFPeOcH_L2GbYrD58vzL-15" vertex="1">
          <mxGeometry y="30" width="147" height="30" as="geometry" />
        </mxCell>
        <mxCell id="uFPeOcH_L2GbYrD58vzL-18" value="username" style="shape=partialRectangle;connectable=0;fillColor=none;top=0;left=0;bottom=0;right=0;align=left;spacingLeft=6;fontStyle=1;overflow=hidden;whiteSpace=wrap;html=1;" parent="uFPeOcH_L2GbYrD58vzL-16" vertex="1">
          <mxGeometry width="147" height="30" as="geometry">
            <mxRectangle width="147" height="30" as="alternateBounds" />
          </mxGeometry>
        </mxCell>
        <mxCell id="uFPeOcH_L2GbYrD58vzL-19" value="" style="shape=tableRow;horizontal=0;startSize=0;swimlaneHead=0;swimlaneBody=0;fillColor=none;collapsible=0;dropTarget=0;points=[[0,0.5],[1,0.5]];portConstraint=eastwest;top=0;left=0;right=0;bottom=0;" parent="uFPeOcH_L2GbYrD58vzL-15" vertex="1">
          <mxGeometry y="60" width="147" height="30" as="geometry" />
        </mxCell>
        <mxCell id="uFPeOcH_L2GbYrD58vzL-21" value="first_name" style="shape=partialRectangle;connectable=0;fillColor=none;top=0;left=0;bottom=0;right=0;align=left;spacingLeft=6;overflow=hidden;whiteSpace=wrap;html=1;" parent="uFPeOcH_L2GbYrD58vzL-19" vertex="1">
          <mxGeometry width="147" height="30" as="geometry">
            <mxRectangle width="147" height="30" as="alternateBounds" />
          </mxGeometry>
        </mxCell>
        <mxCell id="uFPeOcH_L2GbYrD58vzL-22" value="" style="shape=tableRow;horizontal=0;startSize=0;swimlaneHead=0;swimlaneBody=0;fillColor=none;collapsible=0;dropTarget=0;points=[[0,0.5],[1,0.5]];portConstraint=eastwest;top=0;left=0;right=0;bottom=0;" parent="uFPeOcH_L2GbYrD58vzL-15" vertex="1">
          <mxGeometry y="90" width="147" height="26" as="geometry" />
        </mxCell>
        <mxCell id="uFPeOcH_L2GbYrD58vzL-24" value="last_name" style="shape=partialRectangle;connectable=0;fillColor=none;top=0;left=0;bottom=0;right=0;align=left;spacingLeft=6;overflow=hidden;whiteSpace=wrap;html=1;" parent="uFPeOcH_L2GbYrD58vzL-22" vertex="1">
          <mxGeometry width="147" height="26" as="geometry">
            <mxRectangle width="147" height="26" as="alternateBounds" />
          </mxGeometry>
        </mxCell>
        <mxCell id="uFPeOcH_L2GbYrD58vzL-25" value="" style="shape=tableRow;horizontal=0;startSize=0;swimlaneHead=0;swimlaneBody=0;fillColor=none;collapsible=0;dropTarget=0;points=[[0,0.5],[1,0.5]];portConstraint=eastwest;top=0;left=0;right=0;bottom=0;" parent="uFPeOcH_L2GbYrD58vzL-15" vertex="1">
          <mxGeometry y="116" width="147" height="30" as="geometry" />
        </mxCell>
        <mxCell id="uFPeOcH_L2GbYrD58vzL-27" value="birthdate" style="shape=partialRectangle;connectable=0;fillColor=none;top=0;left=0;bottom=0;right=0;align=left;spacingLeft=6;overflow=hidden;whiteSpace=wrap;html=1;" parent="uFPeOcH_L2GbYrD58vzL-25" vertex="1">
          <mxGeometry width="147" height="30" as="geometry">
            <mxRectangle width="147" height="30" as="alternateBounds" />
          </mxGeometry>
        </mxCell>
        <mxCell id="uFPeOcH_L2GbYrD58vzL-134" style="shape=tableRow;horizontal=0;startSize=0;swimlaneHead=0;swimlaneBody=0;fillColor=none;collapsible=0;dropTarget=0;points=[[0,0.5],[1,0.5]];portConstraint=eastwest;top=0;left=0;right=0;bottom=0;" parent="uFPeOcH_L2GbYrD58vzL-15" vertex="1">
          <mxGeometry y="146" width="147" height="30" as="geometry" />
        </mxCell>
        <mxCell id="uFPeOcH_L2GbYrD58vzL-136" value="residence_country" style="shape=partialRectangle;connectable=0;fillColor=none;top=0;left=0;bottom=0;right=0;align=left;spacingLeft=6;overflow=hidden;whiteSpace=wrap;html=1;" parent="uFPeOcH_L2GbYrD58vzL-134" vertex="1">
          <mxGeometry width="147" height="30" as="geometry">
            <mxRectangle width="147" height="30" as="alternateBounds" />
          </mxGeometry>
        </mxCell>
        <mxCell id="uFPeOcH_L2GbYrD58vzL-140" style="shape=tableRow;horizontal=0;startSize=0;swimlaneHead=0;swimlaneBody=0;fillColor=none;collapsible=0;dropTarget=0;points=[[0,0.5],[1,0.5]];portConstraint=eastwest;top=0;left=0;right=0;bottom=0;" parent="uFPeOcH_L2GbYrD58vzL-15" vertex="1">
          <mxGeometry y="176" width="147" height="30" as="geometry" />
        </mxCell>
        <mxCell id="uFPeOcH_L2GbYrD58vzL-142" value="birth_country" style="shape=partialRectangle;connectable=0;fillColor=none;top=0;left=0;bottom=0;right=0;align=left;spacingLeft=6;overflow=hidden;whiteSpace=wrap;html=1;" parent="uFPeOcH_L2GbYrD58vzL-140" vertex="1">
          <mxGeometry width="147" height="30" as="geometry">
            <mxRectangle width="147" height="30" as="alternateBounds" />
          </mxGeometry>
        </mxCell>
        <mxCell id="uFPeOcH_L2GbYrD58vzL-143" style="shape=tableRow;horizontal=0;startSize=0;swimlaneHead=0;swimlaneBody=0;fillColor=none;collapsible=0;dropTarget=0;points=[[0,0.5],[1,0.5]];portConstraint=eastwest;top=0;left=0;right=0;bottom=0;" parent="uFPeOcH_L2GbYrD58vzL-15" vertex="1">
          <mxGeometry y="206" width="147" height="30" as="geometry" />
        </mxCell>
        <mxCell id="uFPeOcH_L2GbYrD58vzL-145" value="gender" style="shape=partialRectangle;connectable=0;fillColor=none;top=0;left=0;bottom=0;right=0;align=left;spacingLeft=6;overflow=hidden;whiteSpace=wrap;html=1;" parent="uFPeOcH_L2GbYrD58vzL-143" vertex="1">
          <mxGeometry width="147" height="30" as="geometry">
            <mxRectangle width="147" height="30" as="alternateBounds" />
          </mxGeometry>
        </mxCell>
        <mxCell id="uFPeOcH_L2GbYrD58vzL-35" value="Post" style="shape=table;startSize=30;container=1;collapsible=1;childLayout=tableLayout;fixedRows=1;rowLines=0;fontStyle=1;align=center;resizeLast=1;html=1;" parent="1" vertex="1">
          <mxGeometry x="410" y="688" width="150" height="272" as="geometry" />
        </mxCell>
        <mxCell id="uFPeOcH_L2GbYrD58vzL-36" value="" style="shape=tableRow;horizontal=0;startSize=0;swimlaneHead=0;swimlaneBody=0;fillColor=none;collapsible=0;dropTarget=0;points=[[0,0.5],[1,0.5]];portConstraint=eastwest;top=0;left=0;right=0;bottom=1;" parent="uFPeOcH_L2GbYrD58vzL-35" vertex="1">
          <mxGeometry y="30" width="150" height="30" as="geometry" />
        </mxCell>
        <mxCell id="uFPeOcH_L2GbYrD58vzL-38" value="datetime" style="shape=partialRectangle;connectable=0;fillColor=none;top=0;left=0;bottom=0;right=0;align=left;spacingLeft=6;fontStyle=1;overflow=hidden;whiteSpace=wrap;html=1;" parent="uFPeOcH_L2GbYrD58vzL-36" vertex="1">
          <mxGeometry width="150" height="30" as="geometry">
            <mxRectangle width="150" height="30" as="alternateBounds" />
          </mxGeometry>
        </mxCell>
        <mxCell id="uFPeOcH_L2GbYrD58vzL-39" value="" style="shape=tableRow;horizontal=0;startSize=0;swimlaneHead=0;swimlaneBody=0;fillColor=none;collapsible=0;dropTarget=0;points=[[0,0.5],[1,0.5]];portConstraint=eastwest;top=0;left=0;right=0;bottom=0;" parent="uFPeOcH_L2GbYrD58vzL-35" vertex="1">
          <mxGeometry y="60" width="150" height="30" as="geometry" />
        </mxCell>
        <mxCell id="uFPeOcH_L2GbYrD58vzL-41" value="text" style="shape=partialRectangle;connectable=0;fillColor=none;top=0;left=0;bottom=0;right=0;align=left;spacingLeft=6;overflow=hidden;whiteSpace=wrap;html=1;" parent="uFPeOcH_L2GbYrD58vzL-39" vertex="1">
          <mxGeometry width="150" height="30" as="geometry">
            <mxRectangle width="150" height="30" as="alternateBounds" />
          </mxGeometry>
        </mxCell>
        <mxCell id="uFPeOcH_L2GbYrD58vzL-42" value="" style="shape=tableRow;horizontal=0;startSize=0;swimlaneHead=0;swimlaneBody=0;fillColor=none;collapsible=0;dropTarget=0;points=[[0,0.5],[1,0.5]];portConstraint=eastwest;top=0;left=0;right=0;bottom=0;" parent="uFPeOcH_L2GbYrD58vzL-35" vertex="1">
          <mxGeometry y="90" width="150" height="30" as="geometry" />
        </mxCell>
        <mxCell id="uFPeOcH_L2GbYrD58vzL-44" value="country" style="shape=partialRectangle;connectable=0;fillColor=none;top=0;left=0;bottom=0;right=0;align=left;spacingLeft=6;overflow=hidden;whiteSpace=wrap;html=1;" parent="uFPeOcH_L2GbYrD58vzL-42" vertex="1">
          <mxGeometry width="150" height="30" as="geometry">
            <mxRectangle width="150" height="30" as="alternateBounds" />
          </mxGeometry>
        </mxCell>
        <mxCell id="uFPeOcH_L2GbYrD58vzL-45" value="" style="shape=tableRow;horizontal=0;startSize=0;swimlaneHead=0;swimlaneBody=0;fillColor=none;collapsible=0;dropTarget=0;points=[[0,0.5],[1,0.5]];portConstraint=eastwest;top=0;left=0;right=0;bottom=0;" parent="uFPeOcH_L2GbYrD58vzL-35" vertex="1">
          <mxGeometry y="120" width="150" height="30" as="geometry" />
        </mxCell>
        <mxCell id="uFPeOcH_L2GbYrD58vzL-47" value="city" style="shape=partialRectangle;connectable=0;fillColor=none;top=0;left=0;bottom=0;right=0;align=left;spacingLeft=6;overflow=hidden;whiteSpace=wrap;html=1;" parent="uFPeOcH_L2GbYrD58vzL-45" vertex="1">
          <mxGeometry width="150" height="30" as="geometry">
            <mxRectangle width="150" height="30" as="alternateBounds" />
          </mxGeometry>
        </mxCell>
        <mxCell id="uFPeOcH_L2GbYrD58vzL-148" style="shape=tableRow;horizontal=0;startSize=0;swimlaneHead=0;swimlaneBody=0;fillColor=none;collapsible=0;dropTarget=0;points=[[0,0.5],[1,0.5]];portConstraint=eastwest;top=0;left=0;right=0;bottom=0;" parent="uFPeOcH_L2GbYrD58vzL-35" vertex="1">
          <mxGeometry y="150" width="150" height="30" as="geometry" />
        </mxCell>
        <mxCell id="uFPeOcH_L2GbYrD58vzL-150" value="state" style="shape=partialRectangle;connectable=0;fillColor=none;top=0;left=0;bottom=0;right=0;align=left;spacingLeft=6;overflow=hidden;whiteSpace=wrap;html=1;" parent="uFPeOcH_L2GbYrD58vzL-148" vertex="1">
          <mxGeometry width="150" height="30" as="geometry">
            <mxRectangle width="150" height="30" as="alternateBounds" />
          </mxGeometry>
        </mxCell>
        <mxCell id="uFPeOcH_L2GbYrD58vzL-151" style="shape=tableRow;horizontal=0;startSize=0;swimlaneHead=0;swimlaneBody=0;fillColor=none;collapsible=0;dropTarget=0;points=[[0,0.5],[1,0.5]];portConstraint=eastwest;top=0;left=0;right=0;bottom=0;" parent="uFPeOcH_L2GbYrD58vzL-35" vertex="1">
          <mxGeometry y="180" width="150" height="30" as="geometry" />
        </mxCell>
        <mxCell id="uFPeOcH_L2GbYrD58vzL-153" value="likes" style="shape=partialRectangle;connectable=0;fillColor=none;top=0;left=0;bottom=0;right=0;align=left;spacingLeft=6;overflow=hidden;whiteSpace=wrap;html=1;" parent="uFPeOcH_L2GbYrD58vzL-151" vertex="1">
          <mxGeometry width="150" height="30" as="geometry">
            <mxRectangle width="150" height="30" as="alternateBounds" />
          </mxGeometry>
        </mxCell>
        <mxCell id="uFPeOcH_L2GbYrD58vzL-154" style="shape=tableRow;horizontal=0;startSize=0;swimlaneHead=0;swimlaneBody=0;fillColor=none;collapsible=0;dropTarget=0;points=[[0,0.5],[1,0.5]];portConstraint=eastwest;top=0;left=0;right=0;bottom=0;" parent="uFPeOcH_L2GbYrD58vzL-35" vertex="1">
          <mxGeometry y="210" width="150" height="30" as="geometry" />
        </mxCell>
        <mxCell id="uFPeOcH_L2GbYrD58vzL-156" value="dislikes" style="shape=partialRectangle;connectable=0;fillColor=none;top=0;left=0;bottom=0;right=0;align=left;spacingLeft=6;overflow=hidden;whiteSpace=wrap;html=1;" parent="uFPeOcH_L2GbYrD58vzL-154" vertex="1">
          <mxGeometry width="150" height="30" as="geometry">
            <mxRectangle width="150" height="30" as="alternateBounds" />
          </mxGeometry>
        </mxCell>
        <mxCell id="uFPeOcH_L2GbYrD58vzL-157" style="shape=tableRow;horizontal=0;startSize=0;swimlaneHead=0;swimlaneBody=0;fillColor=none;collapsible=0;dropTarget=0;points=[[0,0.5],[1,0.5]];portConstraint=eastwest;top=0;left=0;right=0;bottom=0;" parent="uFPeOcH_L2GbYrD58vzL-35" vertex="1">
          <mxGeometry y="240" width="150" height="30" as="geometry" />
        </mxCell>
        <mxCell id="uFPeOcH_L2GbYrD58vzL-159" value="has_multimedia" style="shape=partialRectangle;connectable=0;fillColor=none;top=0;left=0;bottom=0;right=0;align=left;spacingLeft=6;overflow=hidden;whiteSpace=wrap;html=1;" parent="uFPeOcH_L2GbYrD58vzL-157" vertex="1">
          <mxGeometry width="150" height="30" as="geometry">
            <mxRectangle width="150" height="30" as="alternateBounds" />
          </mxGeometry>
        </mxCell>
        <mxCell id="uFPeOcH_L2GbYrD58vzL-54" value="user_social" style="shape=rhombus;double=1;perimeter=rhombusPerimeter;whiteSpace=wrap;html=1;align=center;" parent="1" vertex="1">
          <mxGeometry x="90" y="353" width="120" height="60" as="geometry" />
        </mxCell>
        <mxCell id="uFPeOcH_L2GbYrD58vzL-56" value="" style="endArrow=classic;html=1;rounded=0;exitX=0.5;exitY=0;exitDx=0;exitDy=0;entryX=0.533;entryY=1;entryDx=0;entryDy=0;entryPerimeter=0;" parent="1" source="uFPeOcH_L2GbYrD58vzL-54" target="uFPeOcH_L2GbYrD58vzL-3" edge="1">
          <mxGeometry width="50" height="50" relative="1" as="geometry">
            <mxPoint x="-381" y="543" as="sourcePoint" />
            <mxPoint x="151" y="300" as="targetPoint" />
          </mxGeometry>
        </mxCell>
        <mxCell id="uFPeOcH_L2GbYrD58vzL-57" value="" style="shape=link;html=1;rounded=0;entryX=0.5;entryY=1;entryDx=0;entryDy=0;exitX=0.527;exitY=-0.004;exitDx=0;exitDy=0;exitPerimeter=0;" parent="1" target="uFPeOcH_L2GbYrD58vzL-54" edge="1">
          <mxGeometry width="100" relative="1" as="geometry">
            <mxPoint x="149.46900000000005" y="472.048" as="sourcePoint" />
            <mxPoint x="-311" y="513" as="targetPoint" />
          </mxGeometry>
        </mxCell>
        <mxCell id="uFPeOcH_L2GbYrD58vzL-62" value="user_post" style="shape=rhombus;double=1;perimeter=rhombusPerimeter;whiteSpace=wrap;html=1;align=center;" parent="1" vertex="1">
          <mxGeometry x="425" y="556" width="120" height="60" as="geometry" />
        </mxCell>
        <mxCell id="uFPeOcH_L2GbYrD58vzL-63" value="" style="endArrow=classic;html=1;rounded=0;entryX=0.999;entryY=0.358;entryDx=0;entryDy=0;exitX=0.5;exitY=0;exitDx=0;exitDy=0;entryPerimeter=0;" parent="1" source="uFPeOcH_L2GbYrD58vzL-62" target="uFPeOcH_L2GbYrD58vzL-117" edge="1">
          <mxGeometry width="50" height="50" relative="1" as="geometry">
            <mxPoint x="-17" y="538" as="sourcePoint" />
            <mxPoint x="515" y="300" as="targetPoint" />
          </mxGeometry>
        </mxCell>
        <mxCell id="uFPeOcH_L2GbYrD58vzL-64" value="" style="shape=link;html=1;rounded=0;entryX=0.5;entryY=1;entryDx=0;entryDy=0;exitX=0.5;exitY=0;exitDx=0;exitDy=0;" parent="1" source="uFPeOcH_L2GbYrD58vzL-35" target="uFPeOcH_L2GbYrD58vzL-62" edge="1">
          <mxGeometry width="100" relative="1" as="geometry">
            <mxPoint x="515" y="655" as="sourcePoint" />
            <mxPoint x="53" y="716" as="targetPoint" />
          </mxGeometry>
        </mxCell>
        <mxCell id="uFPeOcH_L2GbYrD58vzL-65" value="Field" style="shape=table;startSize=30;container=1;collapsible=1;childLayout=tableLayout;fixedRows=1;rowLines=0;fontStyle=1;align=center;resizeLast=1;html=1;" parent="1" vertex="1">
          <mxGeometry x="424" y="1142" width="150" height="60.000000000000455" as="geometry" />
        </mxCell>
        <mxCell id="uFPeOcH_L2GbYrD58vzL-66" value="" style="shape=tableRow;horizontal=0;startSize=0;swimlaneHead=0;swimlaneBody=0;fillColor=none;collapsible=0;dropTarget=0;points=[[0,0.5],[1,0.5]];portConstraint=eastwest;top=0;left=0;right=0;bottom=1;" parent="uFPeOcH_L2GbYrD58vzL-65" vertex="1">
          <mxGeometry y="30" width="150" height="30" as="geometry" />
        </mxCell>
        <mxCell id="uFPeOcH_L2GbYrD58vzL-68" value="Name" style="shape=partialRectangle;connectable=0;fillColor=none;top=0;left=0;bottom=0;right=0;align=left;spacingLeft=6;fontStyle=1;overflow=hidden;whiteSpace=wrap;html=1;" parent="uFPeOcH_L2GbYrD58vzL-66" vertex="1">
          <mxGeometry width="150" height="30" as="geometry">
            <mxRectangle width="150" height="30" as="alternateBounds" />
          </mxGeometry>
        </mxCell>
        <mxCell id="uFPeOcH_L2GbYrD58vzL-79" value="field_result" style="shape=rhombus;perimeter=rhombusPerimeter;whiteSpace=wrap;html=1;align=center;" parent="1" vertex="1">
          <mxGeometry x="440" y="1000" width="120" height="60" as="geometry" />
        </mxCell>
        <mxCell id="uFPeOcH_L2GbYrD58vzL-81" value="" style="endArrow=none;html=1;rounded=0;exitX=0.5;exitY=0;exitDx=0;exitDy=0;" parent="1" source="uFPeOcH_L2GbYrD58vzL-79" edge="1">
          <mxGeometry width="50" height="50" relative="1" as="geometry">
            <mxPoint x="320" y="940" as="sourcePoint" />
            <mxPoint x="500" y="960" as="targetPoint" />
          </mxGeometry>
        </mxCell>
        <mxCell id="uFPeOcH_L2GbYrD58vzL-82" value="" style="endArrow=none;html=1;rounded=0;entryX=0.5;entryY=1;entryDx=0;entryDy=0;exitX=0.5;exitY=0;exitDx=0;exitDy=0;" parent="1" source="uFPeOcH_L2GbYrD58vzL-65" target="uFPeOcH_L2GbYrD58vzL-79" edge="1">
          <mxGeometry width="50" height="50" relative="1" as="geometry">
            <mxPoint x="300" y="1060" as="sourcePoint" />
            <mxPoint x="350" y="1010" as="targetPoint" />
          </mxGeometry>
        </mxCell>
        <mxCell id="uFPeOcH_L2GbYrD58vzL-83" value="result_val" style="whiteSpace=wrap;html=1;align=center;" parent="1" vertex="1">
          <mxGeometry x="630" y="1010" width="100" height="40" as="geometry" />
        </mxCell>
        <mxCell id="uFPeOcH_L2GbYrD58vzL-89" value="" style="endArrow=none;dashed=1;html=1;rounded=0;entryX=0;entryY=0.5;entryDx=0;entryDy=0;exitX=1;exitY=0.5;exitDx=0;exitDy=0;" parent="1" source="uFPeOcH_L2GbYrD58vzL-79" target="uFPeOcH_L2GbYrD58vzL-83" edge="1">
          <mxGeometry width="50" height="50" relative="1" as="geometry">
            <mxPoint x="330" y="1050" as="sourcePoint" />
            <mxPoint x="380" y="1000" as="targetPoint" />
          </mxGeometry>
        </mxCell>
        <mxCell id="uFPeOcH_L2GbYrD58vzL-91" value="Project" style="shape=table;startSize=30;container=1;collapsible=1;childLayout=tableLayout;fixedRows=1;rowLines=0;fontStyle=1;align=center;resizeLast=1;html=1;" parent="1" vertex="1">
          <mxGeometry x="60" y="1064" width="150" height="216" as="geometry">
            <mxRectangle x="90" y="1010" width="70" height="30" as="alternateBounds" />
          </mxGeometry>
        </mxCell>
        <mxCell id="uFPeOcH_L2GbYrD58vzL-92" value="" style="shape=tableRow;horizontal=0;startSize=0;swimlaneHead=0;swimlaneBody=0;fillColor=none;collapsible=0;dropTarget=0;points=[[0,0.5],[1,0.5]];portConstraint=eastwest;top=0;left=0;right=0;bottom=1;" parent="uFPeOcH_L2GbYrD58vzL-91" vertex="1">
          <mxGeometry y="30" width="150" height="30" as="geometry" />
        </mxCell>
        <mxCell id="uFPeOcH_L2GbYrD58vzL-94" value="Name" style="shape=partialRectangle;connectable=0;fillColor=none;top=0;left=0;bottom=0;right=0;align=left;spacingLeft=6;fontStyle=5;overflow=hidden;whiteSpace=wrap;html=1;" parent="uFPeOcH_L2GbYrD58vzL-92" vertex="1">
          <mxGeometry width="150" height="30" as="geometry">
            <mxRectangle width="150" height="30" as="alternateBounds" />
          </mxGeometry>
        </mxCell>
        <mxCell id="uFPeOcH_L2GbYrD58vzL-95" value="" style="shape=tableRow;horizontal=0;startSize=0;swimlaneHead=0;swimlaneBody=0;fillColor=none;collapsible=0;dropTarget=0;points=[[0,0.5],[1,0.5]];portConstraint=eastwest;top=0;left=0;right=0;bottom=0;" parent="uFPeOcH_L2GbYrD58vzL-91" vertex="1">
          <mxGeometry y="60" width="150" height="30" as="geometry" />
        </mxCell>
        <mxCell id="uFPeOcH_L2GbYrD58vzL-97" value="manager_first" style="shape=partialRectangle;connectable=0;fillColor=none;top=0;left=0;bottom=0;right=0;align=left;spacingLeft=6;overflow=hidden;whiteSpace=wrap;html=1;" parent="uFPeOcH_L2GbYrD58vzL-95" vertex="1">
          <mxGeometry width="150" height="30" as="geometry">
            <mxRectangle width="150" height="30" as="alternateBounds" />
          </mxGeometry>
        </mxCell>
        <mxCell id="uFPeOcH_L2GbYrD58vzL-98" value="" style="shape=tableRow;horizontal=0;startSize=0;swimlaneHead=0;swimlaneBody=0;fillColor=none;collapsible=0;dropTarget=0;points=[[0,0.5],[1,0.5]];portConstraint=eastwest;top=0;left=0;right=0;bottom=0;" parent="uFPeOcH_L2GbYrD58vzL-91" vertex="1">
          <mxGeometry y="90" width="150" height="30" as="geometry" />
        </mxCell>
        <mxCell id="uFPeOcH_L2GbYrD58vzL-100" value="manager_last" style="shape=partialRectangle;connectable=0;fillColor=none;top=0;left=0;bottom=0;right=0;align=left;spacingLeft=6;overflow=hidden;whiteSpace=wrap;html=1;" parent="uFPeOcH_L2GbYrD58vzL-98" vertex="1">
          <mxGeometry width="150" height="30" as="geometry">
            <mxRectangle width="150" height="30" as="alternateBounds" />
          </mxGeometry>
        </mxCell>
        <mxCell id="uFPeOcH_L2GbYrD58vzL-101" value="" style="shape=tableRow;horizontal=0;startSize=0;swimlaneHead=0;swimlaneBody=0;fillColor=none;collapsible=0;dropTarget=0;points=[[0,0.5],[1,0.5]];portConstraint=eastwest;top=0;left=0;right=0;bottom=0;" parent="uFPeOcH_L2GbYrD58vzL-91" vertex="1">
          <mxGeometry y="120" width="150" height="30" as="geometry" />
        </mxCell>
        <mxCell id="uFPeOcH_L2GbYrD58vzL-103" value="institute" style="shape=partialRectangle;connectable=0;fillColor=none;top=0;left=0;bottom=0;right=0;align=left;spacingLeft=6;overflow=hidden;whiteSpace=wrap;html=1;" parent="uFPeOcH_L2GbYrD58vzL-101" vertex="1">
          <mxGeometry width="150" height="30" as="geometry">
            <mxRectangle width="150" height="30" as="alternateBounds" />
          </mxGeometry>
        </mxCell>
        <mxCell id="uFPeOcH_L2GbYrD58vzL-164" style="shape=tableRow;horizontal=0;startSize=0;swimlaneHead=0;swimlaneBody=0;fillColor=none;collapsible=0;dropTarget=0;points=[[0,0.5],[1,0.5]];portConstraint=eastwest;top=0;left=0;right=0;bottom=0;" parent="uFPeOcH_L2GbYrD58vzL-91" vertex="1">
          <mxGeometry y="150" width="150" height="30" as="geometry" />
        </mxCell>
        <mxCell id="uFPeOcH_L2GbYrD58vzL-166" value="start_date" style="shape=partialRectangle;connectable=0;fillColor=none;top=0;left=0;bottom=0;right=0;align=left;spacingLeft=6;overflow=hidden;whiteSpace=wrap;html=1;" parent="uFPeOcH_L2GbYrD58vzL-164" vertex="1">
          <mxGeometry width="150" height="30" as="geometry">
            <mxRectangle width="150" height="30" as="alternateBounds" />
          </mxGeometry>
        </mxCell>
        <mxCell id="uFPeOcH_L2GbYrD58vzL-161" style="shape=tableRow;horizontal=0;startSize=0;swimlaneHead=0;swimlaneBody=0;fillColor=none;collapsible=0;dropTarget=0;points=[[0,0.5],[1,0.5]];portConstraint=eastwest;top=0;left=0;right=0;bottom=0;" parent="uFPeOcH_L2GbYrD58vzL-91" vertex="1">
          <mxGeometry y="180" width="150" height="30" as="geometry" />
        </mxCell>
        <mxCell id="uFPeOcH_L2GbYrD58vzL-163" value="end_date" style="shape=partialRectangle;connectable=0;fillColor=none;top=0;left=0;bottom=0;right=0;align=left;spacingLeft=6;overflow=hidden;whiteSpace=wrap;html=1;" parent="uFPeOcH_L2GbYrD58vzL-161" vertex="1">
          <mxGeometry width="150" height="30" as="geometry">
            <mxRectangle width="150" height="30" as="alternateBounds" />
          </mxGeometry>
        </mxCell>
        <mxCell id="uFPeOcH_L2GbYrD58vzL-106" value="" style="shape=partialRectangle;connectable=0;fillColor=none;top=0;left=0;bottom=0;right=0;editable=1;overflow=hidden;whiteSpace=wrap;html=1;" parent="1" vertex="1">
          <mxGeometry x="60" y="1214" width="30" height="30" as="geometry">
            <mxRectangle width="30" height="30" as="alternateBounds" />
          </mxGeometry>
        </mxCell>
        <mxCell id="uFPeOcH_L2GbYrD58vzL-113" style="edgeStyle=orthogonalEdgeStyle;rounded=0;orthogonalLoop=1;jettySize=auto;html=1;exitX=0;exitY=0.5;exitDx=0;exitDy=0;entryX=1;entryY=0.5;entryDx=0;entryDy=0;" parent="1" source="uFPeOcH_L2GbYrD58vzL-110" target="uFPeOcH_L2GbYrD58vzL-98" edge="1">
          <mxGeometry relative="1" as="geometry" />
        </mxCell>
        <mxCell id="uFPeOcH_L2GbYrD58vzL-110" value="field_project" style="shape=rhombus;double=1;perimeter=rhombusPerimeter;whiteSpace=wrap;html=1;align=center;" parent="1" vertex="1">
          <mxGeometry x="260" y="1139" width="120" height="60" as="geometry" />
        </mxCell>
        <mxCell id="uFPeOcH_L2GbYrD58vzL-115" value="" style="endArrow=none;html=1;rounded=0;entryX=1;entryY=0.5;entryDx=0;entryDy=0;exitX=-0.014;exitY=0.468;exitDx=0;exitDy=0;exitPerimeter=0;" parent="1" source="uFPeOcH_L2GbYrD58vzL-88" target="uFPeOcH_L2GbYrD58vzL-110" edge="1">
          <mxGeometry width="50" height="50" relative="1" as="geometry">
            <mxPoint x="400" y="1169" as="sourcePoint" />
            <mxPoint x="140" y="1100" as="targetPoint" />
          </mxGeometry>
        </mxCell>
        <mxCell id="uFPeOcH_L2GbYrD58vzL-146" value="" style="endArrow=none;dashed=1;html=1;rounded=0;" parent="1" edge="1">
          <mxGeometry width="50" height="50" relative="1" as="geometry">
            <mxPoint x="79" y="527" as="sourcePoint" />
            <mxPoint x="149" y="527" as="targetPoint" />
          </mxGeometry>
        </mxCell>
        <mxCell id="uFPeOcH_L2GbYrD58vzL-147" value="" style="endArrow=none;dashed=1;html=1;rounded=0;" parent="1" edge="1">
          <mxGeometry width="50" height="50" relative="1" as="geometry">
            <mxPoint x="418" y="740" as="sourcePoint" />
            <mxPoint x="468" y="740" as="targetPoint" />
          </mxGeometry>
        </mxCell>
        <mxCell id="uFPeOcH_L2GbYrD58vzL-160" value="" style="endArrow=none;dashed=1;html=1;rounded=0;" parent="1" edge="1">
          <mxGeometry width="50" height="50" relative="1" as="geometry">
            <mxPoint x="431" y="1195.43" as="sourcePoint" />
            <mxPoint x="481" y="1195.43" as="targetPoint" />
          </mxGeometry>
        </mxCell>
      </root>
    </mxGraphModel>
  </diagram>
</mxfile>
